<svg width="25" height="25" viewBox="0 0 25 25" fill="none" xmlns="http://www.w3.org/2000/svg">
<g id="arrow_back_ios_new">
<mask id="mask0_159_1158" style="mask-type:alpha" maskUnits="userSpaceOnUse" x="0" y="0" width="25" height="25">
<rect id="Bounding box" x="0.5625" y="24.1041" width="24" height="24" transform="rotate(-90 0.5625 24.1041)" fill="#D9D9D9"/>
</mask>
<g mask="url(#mask0_159_1158)">
<path id="arrow_back_ios_new_2" d="M12.5621 14.5541L18.9121 8.20411C19.1621 7.95411 19.4538 7.83328 19.7871 7.84161C20.1205 7.84995 20.4121 7.97911 20.6621 8.22911C20.9121 8.47911 21.0371 8.77078 21.0371 9.10411C21.0371 9.43745 20.9121 9.72911 20.6621 9.97911L13.9871 16.6791C13.7871 16.8791 13.5621 17.0291 13.3121 17.1291C13.0621 17.2291 12.8121 17.2791 12.5621 17.2791C12.3121 17.2791 12.0621 17.2291 11.8121 17.1291C11.5621 17.0291 11.3371 16.8791 11.1371 16.6791L4.43712 9.97911C4.18712 9.72911 4.06629 9.43328 4.07462 9.09161C4.08296 8.74995 4.21212 8.45411 4.46212 8.20411C4.71212 7.95411 5.00379 7.82911 5.33712 7.82911C5.67046 7.82911 5.96212 7.95411 6.21212 8.20411L12.5621 14.5541Z" fill="#1C1B1F"/>
</g>
</g>
</svg>
