<svg xmlns="http://www.w3.org/2000/svg" width="24" height="18" viewBox="0 0 24 18" fill="none">
  <path d="M20.9091 4.78125H3.09091C1.38655 4.78125 0 3.70884 0 2.39063C0 1.07241 1.38655 0 3.09091 0H20.9091C22.6138 0 24 1.07241 24 2.39063C24 3.70884 22.6138 4.78125 20.9091 4.78125ZM3.09091 1.125C2.18873 1.125 1.45455 1.69284 1.45455 2.39063C1.45455 3.08841 2.18873 3.65625 3.09091 3.65625H20.9091C21.8109 3.65625 22.5455 3.08841 22.5455 2.39063C22.5455 1.69284 21.8109 1.125 20.9091 1.125H3.09091Z" fill="#B08912"/>
  <path d="M20.9091 18H3.09091C1.38655 18 0 16.9279 0 15.6094C0 14.2909 1.38655 13.2188 3.09091 13.2188H20.9091C22.6138 13.2188 24 14.2909 24 15.6094C24 16.9279 22.6138 18 20.9091 18ZM3.09091 14.3438C2.18873 14.3438 1.45455 14.9119 1.45455 15.6094C1.45455 16.3069 2.18873 16.875 3.09091 16.875H20.9091C21.8109 16.875 22.5455 16.3069 22.5455 15.6094C22.5455 14.9119 21.8109 14.3438 20.9091 14.3438H3.09091Z" fill="#B08912"/>
  <path d="M20.9091 11.5313H3.09091C1.38655 11.5313 0 10.4591 0 9.14063C0 7.82241 1.38655 6.75 3.09091 6.75H20.9091C22.6138 6.75 24 7.82241 24 9.14063C24 10.4591 22.6138 11.5313 20.9091 11.5313ZM3.09091 7.875C2.18873 7.875 1.45455 8.44284 1.45455 9.14063C1.45455 9.83813 2.18873 10.4063 3.09091 10.4063H20.9091C21.8109 10.4063 22.5455 9.83813 22.5455 9.14063C22.5455 8.44284 21.8109 7.875 20.9091 7.875H3.09091Z" fill="#B08912"/>
</svg>