<svg xmlns="http://www.w3.org/2000/svg" width="26" height="26" viewBox="0 0 26 26" fill="none">
  <path d="M13 26C10.4288 26 7.91543 25.2376 5.77759 23.8091C3.63975 22.3807 1.97351 20.3503 0.989572 17.9749C0.0056327 15.5995 -0.251811 12.9856 0.249797 10.4638C0.751405 7.94208 1.98953 5.6257 3.80762 3.80762C5.6257 1.98953 7.94208 0.751405 10.4638 0.249797C12.9856 -0.251811 15.5995 0.0056327 17.9749 0.989572C20.3503 1.97351 22.3807 3.63975 23.8091 5.77759C25.2376 7.91543 26 10.4288 26 13C26 16.4478 24.6304 19.7544 22.1924 22.1924C19.7544 24.6304 16.4478 26 13 26ZM13 2.00001C10.8244 2.00001 8.69767 2.64514 6.88873 3.85384C5.07979 5.06254 3.66989 6.7805 2.83733 8.79049C2.00477 10.8005 1.78693 13.0122 2.21137 15.146C2.63581 17.2798 3.68345 19.2398 5.22183 20.7782C6.76021 22.3166 8.72022 23.3642 10.854 23.7886C12.9878 24.2131 15.1995 23.9952 17.2095 23.1627C19.2195 22.3301 20.9375 20.9202 22.1462 19.1113C23.3549 17.3023 24 15.1756 24 13C24 10.0826 22.8411 7.28473 20.7782 5.22183C18.7153 3.15893 15.9174 2.00001 13 2.00001Z" fill="#B08912"/>
  <path d="M18.5 19.5C18.3684 19.5008 18.2379 19.4755 18.1161 19.4258C17.9943 19.376 17.8835 19.3027 17.79 19.21L12.29 13.71C12.1973 13.6166 12.124 13.5057 12.0742 13.3839C12.0245 13.2621 11.9993 13.1316 12 13V5C12 4.73478 12.1054 4.48043 12.2929 4.29289C12.4804 4.10536 12.7348 4 13 4C13.2652 4 13.5196 4.10536 13.7071 4.29289C13.8947 4.48043 14 4.73478 14 5V12.59L19.21 17.79C19.3037 17.883 19.3781 17.9936 19.4289 18.1154C19.4797 18.2373 19.5058 18.368 19.5058 18.5C19.5058 18.632 19.4797 18.7627 19.4289 18.8846C19.3781 19.0064 19.3037 19.117 19.21 19.21C19.1166 19.3027 19.0058 19.376 18.8839 19.4258C18.7621 19.4755 18.6316 19.5008 18.5 19.5Z" fill="#B08912"/>
</svg>