<svg xmlns="http://www.w3.org/2000/svg" width="16" height="30" viewBox="0 0 16 30" fill="none">
  <path d="M3.80951 29.8274C3.80951 24.9975 3.80951 20.2086 3.80951 15.3706C2.76608 15.3706 1.75476 15.3706 0.71936 15.3706C0.71936 13.7306 0.71936 12.1397 0.71936 10.4997C0.855808 10.4915 0.992256 10.4751 1.13673 10.4751C1.88318 10.4751 2.63766 10.4587 3.38411 10.4833C3.71319 10.4915 3.82556 10.4013 3.81753 10.0569C3.80148 8.81048 3.80148 7.57226 3.80951 6.32584C3.81753 4.92362 4.2028 3.6526 5.18201 2.63579C6.12912 1.65177 7.3411 1.11876 8.65742 1.03676C10.7764 0.913761 12.9034 0.930161 15.0303 0.88916C15.0544 0.88916 15.0785 0.91376 15.1267 0.938361C15.1267 2.58659 15.1267 4.24301 15.1267 5.94044C14.9742 5.94864 14.8297 5.95684 14.6932 5.95684C13.7301 5.95684 12.7669 5.95684 11.8038 5.95684C10.8326 5.96504 10.2627 6.55544 10.2627 7.53126C10.2627 8.45787 10.2627 9.39269 10.2707 10.3193C10.2707 10.3439 10.2868 10.3685 10.3109 10.4587C11.9001 10.4587 13.5053 10.4587 15.1909 10.4587C14.9822 12.1233 14.7896 13.7142 14.5809 15.3624C13.1281 15.3624 11.7074 15.3624 10.2466 15.3624C10.2466 20.2168 10.2466 25.0221 10.2466 29.8438C8.08755 29.8274 5.98465 29.8274 3.80951 29.8274Z" fill="#E8B51A"/>
</svg>