<svg xmlns="http://www.w3.org/2000/svg" width="40" height="41" viewBox="0 0 40 41" fill="none">
  <path d="M20 10.8395C18.1013 10.8395 16.2452 11.4025 14.6665 12.4573C13.0878 13.5122 11.8574 15.0115 11.1308 16.7657C10.4042 18.5199 10.214 20.4501 10.5845 22.3123C10.9549 24.1745 11.8692 25.8851 13.2118 27.2277C14.5544 28.5703 16.2649 29.4846 18.1271 29.855C19.9894 30.2254 21.9196 30.0353 23.6738 29.3087C25.4279 28.5821 26.9272 27.3516 27.9821 25.7729C29.037 24.1942 29.6 22.3382 29.6 20.4395C29.5971 17.8943 28.5848 15.4541 26.785 13.6544C24.9853 11.8547 22.5452 10.8423 20 10.8395ZM20 26.8395C18.7342 26.8395 17.4968 26.4641 16.4444 25.7609C15.3919 25.0576 14.5716 24.0581 14.0872 22.8886C13.6028 21.7192 13.476 20.4324 13.723 19.1909C13.9699 17.9494 14.5795 16.809 15.4745 15.914C16.3696 15.0189 17.5099 14.4094 18.7514 14.1624C19.9929 13.9155 21.2797 14.0422 22.4492 14.5266C23.6186 15.011 24.6182 15.8313 25.3214 16.8838C26.0246 17.9363 26.4 19.1737 26.4 20.4395C26.3981 22.1362 25.7232 23.763 24.5234 24.9628C23.3235 26.1626 21.6968 26.8375 20 26.8395ZM28.8 0.439453H11.2C8.23061 0.442816 5.3838 1.62389 3.28412 3.72357C1.18444 5.82325 0.00336295 8.67006 0 11.6395V29.2395C0.00336295 32.2088 1.18444 35.0557 3.28412 37.1553C5.3838 39.255 8.23061 40.4361 11.2 40.4395H28.8C31.7694 40.4361 34.6162 39.255 36.7159 37.1553C38.8156 35.0557 39.9966 32.2088 40 29.2395V11.6395C39.9966 8.67006 38.8156 5.82325 36.7159 3.72357C34.6162 1.62389 31.7694 0.442816 28.8 0.439453ZM36.8 29.2395C36.7976 31.3605 35.954 33.3939 34.4542 34.8937C32.9544 36.3934 30.921 37.2371 28.8 37.2395H11.2C9.079 37.2371 7.04556 36.3934 5.54579 34.8937C4.04602 33.3939 3.20239 31.3605 3.2 29.2395V11.6395C3.20239 9.51846 4.04602 7.48501 5.54579 5.98524C7.04556 4.48547 9.079 3.64185 11.2 3.63945H28.8C30.921 3.64185 32.9544 4.48547 34.4542 5.98524C35.954 7.48501 36.7976 9.51846 36.8 11.6395V29.2395ZM32.8 10.0395C32.8 10.5141 32.6592 10.9781 32.3955 11.3728C32.1318 11.7675 31.757 12.0751 31.3184 12.2568C30.8799 12.4384 30.3973 12.4859 29.9318 12.3933C29.4662 12.3007 29.0386 12.0722 28.7029 11.7365C28.3673 11.4009 28.1387 10.9732 28.0461 10.5077C27.9535 10.0421 28.001 9.55956 28.1827 9.12101C28.3643 8.68247 28.672 8.30764 29.0666 8.04393C29.4613 7.78021 29.9253 7.63945 30.4 7.63945C31.0365 7.63945 31.647 7.89231 32.0971 8.3424C32.5471 8.79248 32.8 9.40293 32.8 10.0395Z" fill="#E8B51A"/>
</svg>