<svg width="30" height="30" viewBox="0 0 30 30" fill="none" xmlns="http://www.w3.org/2000/svg">
<g filter="url(#filter0_d_513_374)">
<path d="M14.5304 1.28332C14.6906 0.845726 15.3094 0.845724 15.4696 1.28331L18.5347 9.66044C18.6045 9.85127 18.7829 9.98087 18.9859 9.9883L27.9002 10.3147C28.3659 10.3318 28.5571 10.9204 28.1904 11.2079L21.1705 16.7117C21.0106 16.837 20.9425 17.0467 20.9981 17.2422L23.4423 25.821C23.57 26.2692 23.0693 26.6329 22.6826 26.373L15.2789 21.3974C15.1102 21.2841 14.8898 21.2841 14.7211 21.3974L7.31741 26.373C6.93067 26.6329 6.42998 26.2692 6.55766 25.821L9.00187 17.2422C9.05755 17.0467 8.98941 16.837 8.8295 16.7117L1.80956 11.2079C1.44286 10.9204 1.63411 10.3318 2.09976 10.3147L11.0141 9.9883C11.2171 9.98087 11.3955 9.85127 11.4653 9.66044L14.5304 1.28332Z" fill="white"/>
<path d="M14.7652 1.36922C14.8453 1.15042 15.1547 1.15043 15.2348 1.36922L18.2999 9.74635C18.4046 10.0326 18.6722 10.227 18.9768 10.2381L27.8911 10.5646C28.1239 10.5731 28.2195 10.8674 28.0362 11.0111L21.0162 16.5149C20.7764 16.703 20.6742 17.0175 20.7577 17.3107L23.2019 25.8895C23.2658 26.1136 23.0154 26.2955 22.822 26.1655L15.4183 21.1899C15.1654 21.0199 14.8346 21.0199 14.5817 21.1899L7.17797 26.1655C6.9846 26.2955 6.73425 26.1136 6.79809 25.8895L9.2423 17.3107C9.32582 17.0175 9.22362 16.703 8.98375 16.5149L1.96381 11.0111C1.78046 10.8674 1.87608 10.5731 2.10891 10.5646L11.0232 10.2381C11.3278 10.227 11.5954 10.0326 11.7001 9.74635L14.7652 1.36922Z" stroke="#777777" stroke-width="0.5"/>
</g>
<defs>
<filter id="filter0_d_513_374" x="1.11719" y="0.455078" width="28.7656" height="27.5049" filterUnits="userSpaceOnUse" color-interpolation-filters="sRGB">
<feFlood flood-opacity="0" result="BackgroundImageFix"/>
<feColorMatrix in="SourceAlpha" type="matrix" values="0 0 0 0 0 0 0 0 0 0 0 0 0 0 0 0 0 0 127 0" result="hardAlpha"/>
<feOffset dx="0.5" dy="0.5"/>
<feGaussianBlur stdDeviation="0.5"/>
<feComposite in2="hardAlpha" operator="out"/>
<feColorMatrix type="matrix" values="0 0 0 0 0 0 0 0 0 0 0 0 0 0 0 0 0 0 0.2 0"/>
<feBlend mode="normal" in2="BackgroundImageFix" result="effect1_dropShadow_513_374"/>
<feBlend mode="normal" in="SourceGraphic" in2="effect1_dropShadow_513_374" result="shape"/>
</filter>
</defs>
</svg>
