                <svg xmlns="http://www.w3.org/2000/svg" width="24" height="30" viewBox="0 0 24 30" fill="none"><path d="M4.70801 7.5V4.5C4.70801 2.01472 6.66677 0 9.08301 0C10.2036 0 11.2256 0.43329 11.9997 1.14585C12.7738 0.433275 13.7959 0 14.9163 0C17.3327 0 19.2913 2.01472 19.2913 4.5V7.5H21.4788C22.6869 7.5 23.6663 8.50735 23.6663 9.75V24.7575C23.6663 27.6528 21.3843 30 18.5695 30H6.16634C2.94468 30 0.333008 27.3137 0.333008 24V9.75C0.333008 8.50735 1.31238 7.5 2.52051 7.5H4.70801ZM14.384 27.75C13.8095 26.9014 13.4726 25.8699 13.4726 24.7575V9.75H2.52051V24C2.52051 26.0711 4.15281 27.75 6.16634 27.75H14.384ZM11.2705 7.5V4.5C11.2705 3.25735 10.2911 2.25 9.08301 2.25C7.87488 2.25 6.89551 3.25735 6.89551 4.5V7.5H11.2705ZM13.458 7.5H17.1038V4.5C17.1038 3.25735 16.1244 2.25 14.9163 2.25C14.2382 2.25 13.6323 2.56734 13.2311 3.06552C13.3782 3.51605 13.458 3.99845 13.458 4.5V7.5ZM15.6601 24.7575C15.6601 26.4102 16.9627 27.75 18.5695 27.75C20.1763 27.75 21.4788 26.4102 21.4788 24.7575V9.75H15.6601V24.7575Z" fill="#314960"/></svg>
