<svg width="40" height="43" viewBox="0 0 40 43" fill="#213242" xmlns="http://www.w3.org/2000/svg">
<g id="&#240;&#159;&#166;&#134; icon &#34;balcony window&#34;">
<path id="Vector" d="M2.00874 23.7731H37.9738V42.8364H2.00874V23.7731ZM35.3537 26.6071H4.62884V40.0025H35.3537V26.6071ZM40 26.6071H0V23.7731H40L40 26.6071ZM12.9781 41.4194H10.358V25.1901H12.9782L12.9781 41.4194ZM21.31 41.4194H18.69V25.1901H21.3101L21.31 41.4194ZM29.6419 41.4194H27.0218V25.1901H29.6419V41.4194ZM31.3187 21.5814H28.6986V12.5693C28.6986 7.37291 24.8041 3.16043 19.9999 3.16043C15.1958 3.16043 11.3013 7.37295 11.3013 12.5693V21.5814H8.68121V12.5693C8.68121 5.80776 13.7488 0.326416 20 0.326416C26.2512 0.326416 31.3188 5.80776 31.3188 12.5693L31.3187 21.5814ZM31.6681 15.7811H9.99124V12.9472H31.6681L31.6681 15.7811ZM21.31 21.5814H18.69V1.7434H21.3101L21.31 21.5814Z" fill="#213242"/>
</g>
</svg>
