<svg width="40" height="44" viewBox="0 0 40 44" fill="#213242" xmlns="http://www.w3.org/2000/svg">
<g id="&#240;&#159;&#166;&#134; icon &#34;Bath&#34;">
<path id="Vector" d="M2.5 32.6949C2.50215 33.8302 2.72596 34.9522 3.15678 35.9874C3.5876 37.0227 4.21572 37.9478 5 38.7023V42.1593C5 42.5179 5.1317 42.8618 5.36612 43.1154C5.60054 43.3689 5.91848 43.5114 6.25 43.5114H8.75C9.08152 43.5114 9.39946 43.3689 9.63388 43.1154C9.8683 42.8618 10 42.5179 10 42.1593V40.8073H30V42.1593C30 42.5179 30.1317 42.8618 30.3661 43.1154C30.6005 43.3689 30.9185 43.5114 31.25 43.5114H33.75C34.0815 43.5114 34.3995 43.3689 34.6339 43.1154C34.8683 42.8618 35 42.5179 35 42.1593V38.7023C35.7843 37.9478 36.4124 37.0227 36.8432 35.9874C37.274 34.9522 37.4978 33.8302 37.5 32.6949V28.6388H2.5V32.6949ZM38.75 21.8785H6.25V6.09747C6.25071 5.74261 6.34857 5.39593 6.53122 5.10115C6.71387 4.80638 6.97314 4.57671 7.27632 4.44113C7.5795 4.30554 7.91301 4.27011 8.23479 4.3393C8.55657 4.40849 8.85219 4.57921 9.08438 4.82991L10.5898 6.45745C9.56406 8.98241 9.99531 11.4524 11.2633 13.1949L11.25 13.2093C11.0165 13.4627 10.8853 13.8059 10.8853 14.1637C10.8853 14.5216 11.0165 14.8648 11.25 15.1182L12.1336 16.0739C12.2497 16.1995 12.3875 16.2991 12.5392 16.3671C12.6908 16.4351 12.8534 16.4701 13.0176 16.4701C13.1818 16.4701 13.3443 16.4351 13.496 16.3671C13.6477 16.2991 13.7855 16.1995 13.9016 16.0739L22.1336 7.16982C22.2497 7.04426 22.3418 6.8952 22.4046 6.73114C22.4675 6.56708 22.4998 6.39124 22.4998 6.21366C22.4998 6.03608 22.4675 5.86024 22.4046 5.69618C22.3418 5.53212 22.2497 5.38306 22.1336 5.2575L21.25 4.30177C21.0156 4.0484 20.6978 3.90607 20.3664 3.90607C20.035 3.90607 19.7172 4.0484 19.4828 4.30177L19.4695 4.31613C17.8586 2.94464 15.5766 2.47818 13.2406 3.58771L11.7359 1.95933C10.9793 1.14084 10.0153 0.583424 8.96575 0.357588C7.91622 0.131753 6.82835 0.24764 5.83972 0.690593C4.85109 1.13355 4.0061 1.88367 3.41163 2.84609C2.81716 3.80851 2.49991 4.94001 2.5 6.09747V21.8785H1.25C0.918479 21.8785 0.600537 22.0209 0.366117 22.2745C0.131696 22.528 0 22.872 0 23.2305L0 24.5826C0 24.9412 0.131696 25.2851 0.366117 25.5386C0.600537 25.7922 0.918479 25.9346 1.25 25.9346H38.75C39.0815 25.9346 39.3995 25.7922 39.6339 25.5386C39.8683 25.2851 40 24.9412 40 24.5826V23.2305C40 22.872 39.8683 22.528 39.6339 22.2745C39.3995 22.0209 39.0815 21.8785 38.75 21.8785Z" fill="black"/>
</g>
</svg>
