<svg width="67" height="68" viewBox="0 0 67 68" fill="#213242" xmlns="http://www.w3.org/2000/svg">
<g id="&#240;&#159;&#166;&#134; icon &#34;king bed&#34;">
<path id="Vector" d="M61.4108 34.2612C61.4108 31.193 58.9381 28.6826 55.9161 28.6826V20.3148C55.9161 17.2466 53.4435 14.7363 50.4214 14.7363H17.4532C14.4312 14.7363 11.9586 17.2466 11.9586 20.3148V28.6826C8.93648 28.6826 6.46387 31.193 6.46387 34.2612V48.2075H10.1178L11.9586 53.7861H14.7059L16.5466 48.2075H51.3555L53.1687 53.7861H55.9161L57.7568 48.2075H61.4108V34.2612ZM50.4214 28.6826H36.6847V20.3148H50.4214V28.6826ZM17.4532 20.3148H31.19V28.6826H17.4532V20.3148ZM11.9586 34.2612H55.9161V42.629H11.9586V34.2612Z" fill="#213242"/>
</g>
</svg>
