<svg width="40" height="32" viewBox="0 0 40 32" fill="#213242" xmlns="http://www.w3.org/2000/svg">
<g id="&#240;&#159;&#166;&#134; icon &#34;Coffee&#34;">
<path id="Vector" d="M12.0024 24.6325H24.0014C27.3136 24.6325 30.0009 21.7258 30.0009 18.1432H32.0007C36.4128 18.1432 40 14.2631 40 9.49078C40 4.71844 36.4128 0.838379 32.0007 0.838379H7.50284C6.67166 0.838379 6.00297 1.56167 6.00297 2.4607V18.1432C6.00297 21.7258 8.69024 24.6325 12.0024 24.6325ZM32.0007 5.16458C34.2068 5.16458 36.0004 7.10461 36.0004 9.49078C36.0004 11.8769 34.2068 13.817 32.0007 13.817H30.0009V5.16458H32.0007ZM34.9817 31.1218H3.02198C0.0472407 31.1218 -0.790186 26.7956 0.772177 26.7956H37.2252C38.7876 26.7956 37.9627 31.1218 34.9817 31.1218Z" fill="black"/>
</g>
</svg>
