<svg width="40" height="38" viewBox="0 0 40 38" fill="#213242" xmlns="http://www.w3.org/2000/svg">
<g id="&#240;&#159;&#166;&#134; icon &#34;Shower&#34;">
<path id="Vector" d="M23.75 24.3372C23.5028 24.3372 23.2611 24.4165 23.0555 24.5651C22.85 24.7137 22.6898 24.9248 22.5951 25.1719C22.5005 25.4189 22.4758 25.6908 22.524 25.9531C22.5723 26.2153 22.6913 26.4563 22.8661 26.6453C23.0409 26.8344 23.2637 26.9632 23.5061 27.0154C23.7486 27.0675 23.9999 27.0408 24.2284 26.9384C24.4568 26.8361 24.652 26.6628 24.7893 26.4405C24.9267 26.2181 25 25.9567 25 25.6893C25 25.3307 24.8683 24.9868 24.6339 24.7333C24.3995 24.4797 24.0815 24.3372 23.75 24.3372ZM26.25 16.2249C26.0028 16.2249 25.7611 16.3042 25.5555 16.4528C25.35 16.6013 25.1898 16.8125 25.0951 17.0596C25.0005 17.3066 24.9758 17.5785 25.024 17.8407C25.0723 18.103 25.1913 18.3439 25.3661 18.533C25.5409 18.7221 25.7637 18.8509 26.0061 18.903C26.2486 18.9552 26.4999 18.9284 26.7284 18.8261C26.9568 18.7238 27.152 18.5505 27.2893 18.3281C27.4267 18.1058 27.5 17.8444 27.5 17.577C27.5 17.2184 27.3683 16.8745 27.1339 16.6209C26.8995 16.3674 26.5815 16.2249 26.25 16.2249ZM28.75 21.6331C28.9972 21.6331 29.2389 21.5538 29.4445 21.4053C29.65 21.2567 29.8102 21.0455 29.9049 20.7985C29.9995 20.5514 30.0242 20.2796 29.976 20.0173C29.9277 19.755 29.8087 19.5141 29.6339 19.325C29.4591 19.1359 29.2363 19.0072 28.9939 18.955C28.7514 18.9028 28.5001 18.9296 28.2716 19.0319C28.0432 19.1343 27.848 19.3076 27.7107 19.5299C27.5733 19.7523 27.5 20.0137 27.5 20.2811C27.5 20.6397 27.6317 20.9836 27.8661 21.2371C28.1005 21.4907 28.4185 21.6331 28.75 21.6331ZM26.25 24.3372C26.4972 24.3372 26.7389 24.258 26.9445 24.1094C27.15 23.9608 27.3102 23.7497 27.4049 23.5026C27.4995 23.2555 27.5242 22.9837 27.476 22.7214C27.4277 22.4591 27.3087 22.2182 27.1339 22.0291C26.9591 21.8401 26.7363 21.7113 26.4939 21.6591C26.2514 21.6069 26.0001 21.6337 25.7716 21.7361C25.5432 21.8384 25.348 22.0117 25.2107 22.234C25.0733 22.4564 25 22.7178 25 22.9852C25 23.3438 25.1317 23.6877 25.3661 23.9412C25.6005 24.1948 25.9185 24.3372 26.25 24.3372ZM23.75 18.929C23.5028 18.929 23.2611 19.0083 23.0555 19.1569C22.85 19.3055 22.6898 19.5166 22.5951 19.7637C22.5005 20.0107 22.4758 20.2826 22.524 20.5449C22.5723 20.8071 22.6913 21.048 22.8661 21.2371C23.0409 21.4262 23.2637 21.555 23.5061 21.6072C23.7486 21.6593 23.9999 21.6326 24.2284 21.5302C24.4568 21.4279 24.652 21.2546 24.7893 21.0322C24.9267 20.8099 25 20.5485 25 20.2811C25 19.9225 24.8683 19.5786 24.6339 19.325C24.3995 19.0715 24.0815 18.929 23.75 18.929ZM33.75 16.2249C33.9972 16.2249 34.2389 16.1456 34.4445 15.9971C34.65 15.8485 34.8102 15.6373 34.9049 15.3903C34.9995 15.1432 35.0242 14.8714 34.976 14.6091C34.9277 14.3468 34.8087 14.1059 34.6339 13.9168C34.4591 13.7277 34.2363 13.599 33.9939 13.5468C33.7514 13.4946 33.5001 13.5214 33.2716 13.6237C33.0432 13.7261 32.848 13.8994 32.7107 14.1217C32.5733 14.344 32.5 14.6055 32.5 14.8729C32.5 15.2315 32.6317 15.5753 32.8661 15.8289C33.1005 16.0825 33.4185 16.2249 33.75 16.2249ZM30 17.577C30 17.8444 30.0733 18.1058 30.2107 18.3281C30.348 18.5505 30.5432 18.7238 30.7716 18.8261C31.0001 18.9284 31.2514 18.9552 31.4939 18.903C31.7363 18.8509 31.9591 18.7221 32.1339 18.533C32.3087 18.3439 32.4277 18.103 32.476 17.8407C32.5242 17.5785 32.4995 17.3066 32.4049 17.0596C32.3102 16.8125 32.15 16.6013 31.9445 16.4528C31.7389 16.3042 31.4972 16.2249 31.25 16.2249C30.9185 16.2249 30.6005 16.3674 30.3661 16.6209C30.1317 16.8745 30 17.2184 30 17.577ZM28.75 13.5208C28.5028 13.5208 28.2611 13.6001 28.0555 13.7487C27.85 13.8972 27.6898 14.1084 27.5951 14.3555C27.5005 14.6025 27.4758 14.8744 27.524 15.1366C27.5723 15.3989 27.6913 15.6398 27.8661 15.8289C28.0409 16.018 28.2637 16.1468 28.5061 16.1989C28.7486 16.2511 28.9999 16.2243 29.2284 16.122C29.4568 16.0197 29.652 15.8464 29.7893 15.624C29.9267 15.4017 30 15.1403 30 14.8729C30 14.5143 29.8683 14.1704 29.6339 13.9168C29.3995 13.6633 29.0815 13.5208 28.75 13.5208ZM36.25 16.2249C36.0028 16.2249 35.7611 16.3042 35.5555 16.4528C35.35 16.6013 35.1898 16.8125 35.0951 17.0596C35.0005 17.3066 34.9758 17.5785 35.024 17.8407C35.0723 18.103 35.1913 18.3439 35.3661 18.533C35.5409 18.7221 35.7637 18.8509 36.0061 18.903C36.2486 18.9552 36.4999 18.9284 36.7284 18.8261C36.9568 18.7238 37.152 18.5505 37.2893 18.3281C37.4267 18.1058 37.5 17.8444 37.5 17.577C37.5 17.2184 37.3683 16.8745 37.1339 16.6209C36.8995 16.3674 36.5815 16.2249 36.25 16.2249ZM38.75 13.5208C38.5028 13.5208 38.2611 13.6001 38.0555 13.7487C37.85 13.8972 37.6898 14.1084 37.5951 14.3555C37.5005 14.6025 37.4758 14.8744 37.524 15.1366C37.5723 15.3989 37.6913 15.6398 37.8661 15.8289C38.0409 16.018 38.2637 16.1468 38.5061 16.1989C38.7486 16.2511 38.9999 16.2243 39.2284 16.122C39.4568 16.0197 39.652 15.8464 39.7893 15.624C39.9267 15.4017 40 15.1403 40 14.8729C40 14.5143 39.8683 14.1704 39.6339 13.9168C39.3995 13.6633 39.0815 13.5208 38.75 13.5208ZM33.75 18.929C33.5028 18.929 33.2611 19.0083 33.0555 19.1569C32.85 19.3055 32.6898 19.5166 32.5951 19.7637C32.5005 20.0107 32.4758 20.2826 32.524 20.5449C32.5723 20.8071 32.6913 21.048 32.8661 21.2371C33.0409 21.4262 33.2637 21.555 33.5061 21.6072C33.7486 21.6593 33.9999 21.6326 34.2284 21.5302C34.4568 21.4279 34.652 21.2546 34.7893 21.0322C34.9267 20.8099 35 20.5485 35 20.2811C35 19.9225 34.8683 19.5786 34.6339 19.325C34.3995 19.0715 34.0815 18.929 33.75 18.929ZM31.25 21.6331C31.0028 21.6331 30.7611 21.7124 30.5555 21.861C30.35 22.0096 30.1898 22.2207 30.0951 22.4678C30.0005 22.7148 29.9758 22.9867 30.024 23.249C30.0723 23.5112 30.1913 23.7522 30.3661 23.9412C30.5409 24.1303 30.7637 24.2591 31.0061 24.3113C31.2486 24.3634 31.4999 24.3367 31.7284 24.2343C31.9568 24.132 32.152 23.9587 32.2893 23.7364C32.4267 23.514 32.5 23.2526 32.5 22.9852C32.5 22.6266 32.3683 22.2827 32.1339 22.0291C31.8995 21.7756 31.5815 21.6331 31.25 21.6331ZM26.25 27.0414C26.0028 27.0414 25.7611 27.1207 25.5555 27.2692C25.35 27.4178 25.1898 27.6289 25.0951 27.876C25.0005 28.1231 24.9758 28.3949 25.024 28.6572C25.0723 28.9195 25.1913 29.1604 25.3661 29.3495C25.5409 29.5385 25.7637 29.6673 26.0061 29.7195C26.2486 29.7717 26.4999 29.7449 26.7284 29.6425C26.9568 29.5402 27.152 29.3669 27.2893 29.1446C27.4267 28.9222 27.5 28.6608 27.5 28.3934C27.5 28.0348 27.3683 27.6909 27.1339 27.4374C26.8995 27.1838 26.5815 27.0414 26.25 27.0414ZM23.75 29.7455C23.5028 29.7455 23.2611 29.8248 23.0555 29.9733C22.85 30.1219 22.6898 30.3331 22.5951 30.5801C22.5005 30.8272 22.4758 31.099 22.524 31.3613C22.5723 31.6236 22.6913 31.8645 22.8661 32.0536C23.0409 32.2427 23.2637 32.3714 23.5061 32.4236C23.7486 32.4758 23.9999 32.449 24.2284 32.3467C24.4568 32.2443 24.652 32.071 24.7893 31.8487C24.9267 31.6263 25 31.3649 25 31.0975C25 30.7389 24.8683 30.395 24.6339 30.1415C24.3995 29.8879 24.0815 29.7455 23.75 29.7455ZM28.75 24.3372C28.5028 24.3372 28.2611 24.4165 28.0555 24.5651C27.85 24.7137 27.6898 24.9248 27.5951 25.1719C27.5005 25.4189 27.4758 25.6908 27.524 25.9531C27.5723 26.2153 27.6913 26.4563 27.8661 26.6453C28.0409 26.8344 28.2637 26.9632 28.5061 27.0154C28.7486 27.0675 28.9999 27.0408 29.2284 26.9384C29.4568 26.8361 29.652 26.6628 29.7893 26.4405C29.9267 26.2181 30 25.9567 30 25.6893C30 25.3307 29.8683 24.9868 29.6339 24.7333C29.3995 24.4797 29.0815 24.3372 28.75 24.3372ZM30.4414 5.88592L29.5586 4.93019C29.4425 4.8046 29.3047 4.70499 29.153 4.63702C29.0014 4.56905 28.8388 4.53407 28.6746 4.53407C28.5104 4.53407 28.3479 4.56905 28.1962 4.63702C28.0445 4.70499 27.9067 4.8046 27.7906 4.93019L27.3477 5.40848C25.7224 3.67577 23.532 2.70442 21.25 2.70437C19.7469 2.70437 18.3531 3.15223 17.1172 3.87474L16.3359 3.0297C14.563 1.10303 12.1569 0.0138602 9.64375 0.000256235C4.33516 -0.0419955 0 5.14736 0 10.8885V36.5057C0 36.8643 0.131696 37.2082 0.366117 37.4618C0.600537 37.7154 0.918479 37.8578 1.25 37.8578H3.75C4.08152 37.8578 4.39946 37.7154 4.63388 37.4618C4.8683 37.2082 5 36.8643 5 36.5057V10.6815C5 8.13371 6.64062 5.76339 8.98438 5.44819C9.67877 5.34979 10.3848 5.42568 11.0477 5.66996C11.7106 5.91425 12.3126 6.32038 12.807 6.85687L13.5883 7.7019C12.9141 9.03536 12.5 10.5429 12.5 12.1688C12.5004 14.637 13.3984 17.0061 15 18.7642L14.5578 19.2434C14.3236 19.4969 14.192 19.8407 14.192 20.1991C14.192 20.5575 14.3236 20.9013 14.5578 21.1548L15.4406 22.1106C15.5567 22.2362 15.6945 22.3358 15.8462 22.4037C15.9979 22.4717 16.1604 22.5067 16.3246 22.5067C16.4888 22.5067 16.6514 22.4717 16.803 22.4037C16.9547 22.3358 17.0925 22.2362 17.2086 22.1106L30.4414 7.79823C30.5575 7.67268 30.6496 7.52362 30.7124 7.35956C30.7753 7.1955 30.8076 7.01966 30.8076 6.84208C30.8076 6.6645 30.7753 6.48866 30.7124 6.3246C30.6496 6.16054 30.5575 6.01147 30.4414 5.88592Z" fill="black"/>
</g>
</svg>
