<svg width="32" height="51" viewBox="0 0 32 51" fill="#213242" xmlns="http://www.w3.org/2000/svg">
<g id="&#240;&#159;&#166;&#134; icon &#34;fridge&#34;">
<path id="Vector" d="M4.57143 0.59375H27.4286C28.641 0.59375 29.8038 1.1147 30.6611 2.04201C31.5184 2.96931 32 4.227 32 5.53841V17.9001H0V5.53841C0 4.227 0.481631 2.96931 1.33894 2.04201C2.19625 1.1147 3.35901 0.59375 4.57143 0.59375ZM32 42.6234C32 43.9348 31.5184 45.1925 30.6611 46.1198C29.8038 47.0471 28.641 47.568 27.4286 47.568V50.0403H22.8571V47.568H9.14286V50.0403H4.57143V47.568C3.35901 47.568 2.19625 47.0471 1.33894 46.1198C0.481631 45.1925 0 43.9348 0 42.6234V20.3724H32V42.6234ZM6.85714 8.01074V12.9554H11.4286V8.01074H6.85714ZM6.85714 25.317V32.734H11.4286V25.317H6.85714Z" fill="black"/>
</g>
</svg>
