<svg width="40" height="39" viewBox="0 0 40 39" fill="#213242" xmlns="http://www.w3.org/2000/svg">
<g id="&#240;&#159;&#166;&#134; icon &#34;hair care&#34;">
<path id="Vector" d="M34.3608 20.0246C34.65 19.6397 35.2425 19.1971 35.6767 19.0421L39.255 17.462C39.665 17.2394 40 16.6517 40 16.1568V5.11594C40 4.62019 39.6492 4.07035 39.2208 3.89458C39.2208 3.89458 31.735 0.816406 26.72 0.816406C22.0533 0.816406 15.6017 3.47815 15.6017 3.47815C15.1733 3.65482 14.4508 3.84862 13.9958 3.90991L0.8275 5.44043C0.3725 5.50083 0 5.95602 0 6.45177V13.9458C0 14.4415 0.368333 14.9219 0.819167 15.013L13.9817 17.3106C14.4333 17.3917 15.1525 17.608 15.5783 17.791L24.5925 20.2851C25.045 20.359 25.5392 20.8025 25.6883 21.2721L30.9875 37.8222C31.1375 38.2918 31.6158 38.5451 32.05 38.3873L37.6525 36.3493C38.0867 36.1916 38.32 35.6796 38.17 35.21L34.4917 23.7328C34.3417 23.2632 34.215 22.8531 34.2092 22.8197L34.2025 22.7855C33.7617 20.8259 34.3608 20.0246 34.3608 20.0246ZM27.9658 14.0674C25.8742 14.0674 24.185 12.2647 24.185 10.0428C24.185 7.82005 25.8742 6.01821 27.9658 6.01821C30.0508 6.01821 31.745 7.82095 31.745 10.0428C31.745 12.2647 30.0508 14.0674 27.9658 14.0674Z" fill="black"/>
</g>
</svg>
