<svg width="40" height="26" viewBox="0 0 40 26" fill="#213242" xmlns="http://www.w3.org/2000/svg">
<g id="&#240;&#159;&#166;&#134; icon &#34;Couch&#34;">
<path id="Vector" d="M10 10.8164V15.143H30V10.8164C30 8.43006 31.7938 6.48987 34 6.48987H36C36 2.90692 33.3125 0 30 0H10C6.6875 0 4 2.90692 4 6.48987H6C8.20625 6.48987 10 8.43006 10 10.8164ZM36 8.65315H34C32.8937 8.65315 32 9.61987 32 10.8164V17.3063H8V10.8164C8 9.61987 7.10625 8.65315 6 8.65315H4C1.79375 8.65315 0 10.5934 0 12.9797C0 14.5752 0.8125 15.9543 2 16.7046V24.8778C2 25.4727 2.45 25.9595 3 25.9595H7C7.55 25.9595 8 25.4727 8 24.8778V23.7962H32V24.8778C32 25.4727 32.45 25.9595 33 25.9595H37C37.55 25.9595 38 25.4727 38 24.8778V16.7046C39.1875 15.9543 40 14.5752 40 12.9797C40 10.5934 38.2062 8.65315 36 8.65315Z" fill="black"/>
</g>
</svg>
