<svg width="40" height="36" viewBox="0 0 40 36" fill="#213242" xmlns="http://www.w3.org/2000/svg">
<g id="&#240;&#159;&#166;&#134; icon &#34;Television&#34;">
<path id="Vector" d="M37 0.838379H3C2.20435 0.838379 1.44129 1.18025 0.87868 1.7888C0.31607 2.39734 0 3.2227 0 4.08331L0 25.7162C0 26.5768 0.31607 27.4022 0.87868 28.0107C1.44129 28.6193 2.20435 28.9611 3 28.9611H18V31.1244H7C6.73478 31.1244 6.48043 31.2384 6.29289 31.4412C6.10536 31.6441 6 31.9192 6 32.2061V34.3693C6 34.6562 6.10536 34.9313 6.29289 35.1342C6.48043 35.337 6.73478 35.451 7 35.451H33C33.2652 35.451 33.5196 35.337 33.7071 35.1342C33.8946 34.9313 34 34.6562 34 34.3693V32.2061C34 31.9192 33.8946 31.6441 33.7071 31.4412C33.5196 31.2384 33.2652 31.1244 33 31.1244H22V28.9611H37C37.7957 28.9611 38.5587 28.6193 39.1213 28.0107C39.6839 27.4022 40 26.5768 40 25.7162V4.08331C40 3.2227 39.6839 2.39734 39.1213 1.7888C38.5587 1.18025 37.7957 0.838379 37 0.838379ZM36 24.6346H4V5.16496H36V24.6346Z" fill="black"/>
</g>
</svg>
