<svg width="40" height="28" viewBox="0 0 40 28" fill="#213242" xmlns="http://www.w3.org/2000/svg">
<g id="&#240;&#159;&#166;&#134; icon &#34;WiFi&#34;">
<path id="Vector" d="M39.6818 7.68C28.6087 -2.56188 11.3868 -2.55813 0.318072 7.68C-0.0981782 8.065 -0.106303 8.71688 0.296197 9.11626L2.4362 11.2394C2.81995 11.6206 3.43745 11.6288 3.8362 11.2631C12.9562 2.90813 27.0425 2.90625 36.1643 11.2631C36.5631 11.6288 37.1806 11.62 37.5643 11.2394L39.7043 9.11626C40.1062 8.71688 40.0981 8.065 39.6818 7.68ZM20 20C17.7906 20 16 21.7906 16 24C16 26.2094 17.7906 28 20 28C22.2093 28 24 26.2094 24 24C24 21.7906 22.2093 20 20 20ZM32.6668 14.7756C25.4631 8.40501 14.5287 8.41188 7.33308 14.7756C6.90183 15.1569 6.88808 15.8188 7.29745 16.2225L9.44995 18.3469C9.82495 18.7169 10.4287 18.7419 10.8281 18.3969C16.075 13.8613 23.9368 13.8713 29.1712 18.3969C29.5706 18.7419 30.1743 18.7175 30.5493 18.3469L32.7018 16.2225C33.1118 15.8188 33.0975 15.1563 32.6668 14.7756Z" fill="black"/>
</g>
</svg>
