<svg xmlns="http://www.w3.org/2000/svg" width="19" height="14" viewBox="0 0 19 14" fill="none">
  <path d="M18.8899 6.42339L14.6678 0.144352C14.5505 -0.011102 14.4223 -0.0410115 14.283 0.0546861C14.1438 0.150509 14.074 0.323808 14.074 0.575085V4.59363H0.351843C0.249171 4.59363 0.16483 4.64736 0.0989367 4.75499C0.0330816 4.86257 0 5.00017 0 5.16757V8.61193C0 8.77926 0.0329275 8.91687 0.0988982 9.02431C0.164946 9.13189 0.249287 9.18561 0.351805 9.18561H14.074V13.2041C14.074 13.4436 14.144 13.6169 14.2831 13.7242C14.4225 13.8203 14.5507 13.784 14.668 13.6169L18.8902 7.26575C18.9635 7.14624 19 7.00298 19 6.8354C19 6.68032 18.9632 6.54296 18.8899 6.42339Z" fill="#213242"/>
</svg>