<svg width="662" height="519" viewBox="0 0 662 519" fill="none" xmlns="http://www.w3.org/2000/svg">
<path fill-rule="evenodd" clip-rule="evenodd" d="M660.276 300.963C656.942 301.803 565.815 303.578 539.573 303.32C539.534 303.321 489.498 303.027 468.507 303.399C457.559 303.592 438.685 303.381 448.379 301.322C449.949 300.985 484.369 300.376 494.811 300.5C519.595 300.784 566.592 300.734 605.899 300.23C628.782 299.943 644.105 299.893 656.911 300.035C660.457 300.075 662.041 300.519 660.276 300.963Z" fill="white"/>
<path fill-rule="evenodd" clip-rule="evenodd" d="M524.359 262.959C523.411 264.077 491.697 272.881 482.355 274.628C482.341 274.631 464.582 278.164 457.267 280.154C453.452 281.191 446.726 282.421 449.59 279.565C450.052 279.098 462.048 275.836 465.771 275.164C474.605 273.556 491.196 269.903 504.947 266.373C512.954 264.325 518.354 263.1 522.918 262.264C524.182 262.034 524.862 262.368 524.359 262.959Z" fill="white"/>
<path fill-rule="evenodd" clip-rule="evenodd" d="M536.235 259.206C536.423 259.813 533.1 261.901 531.836 261.976C531.835 261.977 529.505 262.255 528.724 262.71C528.317 262.948 527.399 262.984 527.007 261.483C526.942 261.237 528.222 260.49 528.733 260.475C529.942 260.432 532.001 259.947 533.538 259.225C534.436 258.81 535.094 258.629 535.717 258.603C535.89 258.597 536.136 258.885 536.235 259.206Z" fill="white"/>
<path fill-rule="evenodd" clip-rule="evenodd" d="M634.682 169.581C631.991 171.72 549.689 210.884 525.673 221.461C525.637 221.478 479.924 241.826 460.951 250.813C451.055 255.501 433.771 263.085 441.756 257.215C443.047 256.261 474.159 241.524 483.724 237.335C506.424 227.382 549.225 207.972 584.833 191.318C605.565 181.628 619.507 175.268 631.234 170.121C634.482 168.697 636.108 168.449 634.682 169.581Z" fill="white"/>
<path fill-rule="evenodd" clip-rule="evenodd" d="M499.777 189.381C499.28 190.933 470.475 213.482 461.628 219.254C461.616 219.264 444.89 230.456 438.228 235.615C434.754 238.306 428.372 242.433 430.096 238.281C430.372 237.605 441.296 229.146 444.832 226.87C453.216 221.456 468.692 210.637 481.304 201.157C488.651 195.643 493.673 192.084 498.001 189.282C499.201 188.508 500.042 188.561 499.777 189.381Z" fill="white"/>
<path fill-rule="evenodd" clip-rule="evenodd" d="M501.533 187.803C500.814 187.291 502.143 184.383 503.288 183.948C503.288 183.947 505.275 183.014 505.618 182.364C505.797 182.024 506.646 181.725 508.356 183.013C508.637 183.224 508.074 184.29 507.596 184.452C506.476 184.842 504.933 185.889 504.101 187.006C503.61 187.653 503.14 188.012 502.566 188.216C502.406 188.272 501.913 188.074 501.533 187.803Z" fill="white"/>
<path fill-rule="evenodd" clip-rule="evenodd" d="M516.272 119.859C515.19 122.08 470.658 167.769 457.291 180.38C457.272 180.4 431.925 204.588 421.641 215.086C416.277 220.561 406.645 229.614 410.063 223.428C410.614 222.424 427.477 205.21 432.812 200.207C445.464 188.324 469.041 165.374 488.434 145.852C499.729 134.492 507.393 126.985 513.927 120.842C515.737 119.142 516.846 118.684 516.272 119.859Z" fill="white"/>
<path fill-rule="evenodd" clip-rule="evenodd" d="M442.242 132.659C442.357 134.371 422.913 167.616 416.495 176.698C416.486 176.712 404.458 194.155 399.94 201.789C397.583 205.771 392.939 212.286 393.015 207.554C393.023 206.785 400.433 194.267 403.01 190.668C409.115 182.116 420.064 165.524 428.73 151.351C433.781 143.104 437.316 137.673 440.465 133.251C441.338 132.028 442.182 131.753 442.242 132.659Z" fill="white"/>
<path fill-rule="evenodd" clip-rule="evenodd" d="M448.693 122.653C449.764 122.929 449.524 126.177 448.384 126.957C448.384 126.959 446.485 128.486 446.378 129.226C446.322 129.613 445.466 130.168 442.887 129.444C442.464 129.326 442.639 128.112 443.124 127.806C444.257 127.077 445.586 125.577 446.053 124.229C446.335 123.445 446.721 122.949 447.3 122.572C447.462 122.468 448.127 122.507 448.693 122.653Z" fill="white"/>
<path fill-rule="evenodd" clip-rule="evenodd" d="M459.411 5.5008C458.722 8.86896 420.781 91.7415 409.162 115.272C409.145 115.308 387.17 160.261 378.397 179.334C373.821 189.282 365.441 206.195 367.792 196.567C368.169 195.007 382.556 163.731 387.199 154.378C398.208 132.171 418.555 89.8073 435.156 54.1747C444.827 33.4333 451.431 19.6057 457.115 8.12981C458.69 4.95233 459.777 3.71803 459.411 5.5008Z" fill="white"/>
<path fill-rule="evenodd" clip-rule="evenodd" d="M368.399 107.072C369.189 108.595 364.669 146.842 362.42 157.733C362.418 157.75 358.373 178.548 357.286 187.352C356.719 191.944 355.069 199.773 353.246 195.406C352.945 194.698 354.728 180.261 355.65 175.931C357.824 165.651 361.221 146.064 363.493 129.608C364.824 120.029 365.89 113.638 367.007 108.325C367.318 106.854 367.981 106.266 368.399 107.072Z" fill="white"/>
<path fill-rule="evenodd" clip-rule="evenodd" d="M370.308 95.3205C371.4 95.1446 372.48 98.2179 371.747 99.3888C371.747 99.3902 370.618 101.549 370.816 102.271C370.919 102.647 370.357 103.499 367.703 103.868C367.268 103.929 366.944 102.745 367.265 102.271C368.012 101.15 368.63 99.2436 368.519 97.8207C368.463 96.99 368.619 96.3808 368.999 95.8034C369.105 95.6431 369.731 95.4133 370.308 95.3205Z" fill="white"/>
<path fill-rule="evenodd" clip-rule="evenodd" d="M333.035 43.7835C333.816 46.1271 333.978 109.929 333.256 128.291C333.256 128.319 332.076 163.335 332.076 178.031C332.076 185.696 331.531 198.903 329.644 192.093C329.335 190.99 329.335 166.892 329.644 159.585C330.367 142.243 331.148 109.35 331.339 81.8328C331.457 65.8135 331.679 55.088 332.047 46.1271C332.15 43.6457 332.622 42.5428 333.035 43.7835Z" fill="white"/>
<path fill-rule="evenodd" clip-rule="evenodd" d="M293.163 103.538C294.423 104.704 303.12 142.222 304.692 153.231C304.695 153.248 307.932 174.187 309.89 182.839C310.911 187.352 312.01 195.277 308.815 191.785C308.293 191.221 305.082 177.033 304.484 172.646C303.048 162.238 299.613 142.658 296.178 126.405C294.187 116.941 293.026 110.566 292.279 105.189C292.073 103.7 292.498 102.921 293.163 103.538Z" fill="white"/>
<path fill-rule="evenodd" clip-rule="evenodd" d="M290.981 91.8346C291.949 91.2993 294.006 93.8253 293.712 95.1753C293.713 95.1765 293.382 97.5903 293.812 98.2024C294.037 98.5217 293.796 99.5136 291.424 100.759C291.036 100.963 290.329 99.9597 290.472 99.4046C290.795 98.0971 290.73 96.0941 290.144 94.7927C289.811 94.03 289.751 93.404 289.913 92.7322C289.959 92.5452 290.469 92.1173 290.981 91.8346Z" fill="white"/>
<path fill-rule="evenodd" clip-rule="evenodd" d="M210.323 1.14521C212.3 3.95778 246.552 88.4223 255.696 113.02C255.711 113.057 273.333 159.888 281.188 179.357C285.285 189.512 291.838 207.213 286.448 198.896C285.571 197.551 272.692 165.626 269.073 155.83C260.474 132.584 243.617 88.7141 229.088 52.1878C220.635 30.921 215.108 16.6289 210.66 4.61954C209.429 1.29343 209.277 -0.34411 210.323 1.14521Z" fill="white"/>
<path fill-rule="evenodd" clip-rule="evenodd" d="M216.419 130.059C218.116 130.664 241.988 163.295 248.045 173.275C248.056 173.289 259.817 192.168 265.276 199.712C268.123 203.647 272.453 210.845 267.929 208.791C267.192 208.462 258.24 196.09 255.853 192.103C250.174 182.647 238.781 165.162 228.762 150.889C222.936 142.575 219.185 136.899 216.246 132.017C215.433 130.664 215.522 129.737 216.419 130.059Z" fill="white"/>
<path fill-rule="evenodd" clip-rule="evenodd" d="M213.615 128.197C212.995 128.764 209.676 126.449 209.215 125.135C209.213 125.134 208.206 122.796 207.465 122.231C207.079 121.937 206.764 120.97 208.318 119.643C208.573 119.425 209.787 120.351 209.956 120.892C210.367 122.167 211.523 124.089 212.786 125.307C213.518 126.022 213.916 126.621 214.131 127.275C214.19 127.458 213.943 127.897 213.615 128.197Z" fill="white"/>
<path fill-rule="evenodd" clip-rule="evenodd" d="M149.325 113.008C151.511 114.09 196.071 158.47 208.352 171.787C208.371 171.806 231.93 197.059 242.167 207.308C247.507 212.654 256.321 222.249 250.242 218.833C249.255 218.283 232.467 201.478 227.597 196.163C216.026 183.558 193.665 160.067 174.632 140.741C163.556 129.486 156.241 121.85 150.259 115.34C148.604 113.537 148.169 112.435 149.325 113.008Z" fill="white"/>
<path fill-rule="evenodd" clip-rule="evenodd" d="M165.747 188.147C167.376 188.098 198.253 207.713 206.649 214.123C206.663 214.131 222.8 226.156 229.888 230.712C233.585 233.087 239.607 237.723 235.118 237.486C234.389 237.451 222.766 229.981 219.439 227.409C211.535 221.316 196.168 210.344 183.018 201.625C175.366 196.542 170.334 192.998 166.247 189.854C165.116 188.982 164.885 188.172 165.747 188.147Z" fill="white"/>
<path fill-rule="evenodd" clip-rule="evenodd" d="M163.673 187.02C163.431 187.869 160.245 187.587 159.453 186.654C159.452 186.654 157.909 185.093 157.181 184.987C156.802 184.932 156.236 184.232 156.879 182.189C156.983 181.854 158.177 182.029 158.488 182.425C159.23 183.351 160.732 184.454 162.064 184.866C162.838 185.112 163.333 185.435 163.717 185.908C163.823 186.041 163.802 186.571 163.673 187.02Z" fill="white"/>
<path fill-rule="evenodd" clip-rule="evenodd" d="M32.43 166.934C35.7702 167.748 117.176 208.741 140.259 221.225C140.294 221.243 184.4 244.873 203.134 254.349C212.905 259.291 229.495 268.293 219.962 265.586C218.416 265.151 187.697 249.613 178.522 244.626C156.74 232.799 115.161 210.893 80.1695 192.98C59.8015 182.546 46.2288 175.433 34.9719 169.326C31.8551 167.634 30.6621 166.502 32.43 166.934Z" fill="white"/>
<path fill-rule="evenodd" clip-rule="evenodd" d="M138.703 261.444C139.965 260.885 170.458 266.415 179.092 268.763C179.106 268.766 195.608 273.048 202.624 274.358C206.284 275.042 212.49 276.756 208.892 278.003C208.308 278.209 196.803 276.06 193.371 275.104C185.223 272.847 169.661 269.146 156.559 266.504C148.932 264.959 143.851 263.785 139.641 262.624C138.475 262.301 138.035 261.739 138.703 261.444Z" fill="white"/>
<path fill-rule="evenodd" clip-rule="evenodd" d="M127.097 259.759C127.187 259.168 130.86 258.759 131.962 259.213C131.963 259.213 134.052 259.932 134.901 259.866C135.343 259.831 136.137 260.177 135.853 261.61C135.808 261.845 134.417 261.954 133.977 261.757C132.935 261.298 130.991 260.866 129.392 260.848C128.461 260.832 127.829 260.716 127.29 260.483C127.141 260.417 127.05 260.072 127.097 259.759Z" fill="white"/>
<path fill-rule="evenodd" clip-rule="evenodd" d="M0.731699 300.164C4.07973 299.383 95.2246 299.221 121.457 299.943C121.497 299.943 171.52 301.122 192.514 301.122C203.464 301.122 222.331 301.668 212.602 303.555C211.026 303.864 176.601 303.864 166.163 303.555C141.388 302.832 94.3974 302.051 55.0878 301.859C32.203 301.742 16.881 301.52 4.07973 301.152C0.534757 301.049 -1.04078 300.577 0.731699 300.164Z" fill="white"/>
<path d="M97.6099 419.266L72.497 354.779L66.193 353.125V350.542H88.2055V353.125L79.5245 354.572V354.882L99.9868 408.828H100.71L120.449 354.882V354.572L111.355 353.125V350.542H130.577V353.125L125.203 354.262L99.7801 419.266H97.6099ZM139.398 418.749V416.166L147.459 414.409V354.882L139.398 353.125V350.542H161.721V353.125L153.66 354.882V414.409L161.721 416.166V418.749H139.398ZM173.652 418.749V416.166L181.713 414.409V354.882L173.652 353.125V350.542H197.214V353.125L187.913 354.882V415.132H215.92L220.777 396.84H222.844V418.749H173.652ZM234.762 418.749V416.166L242.823 414.409V354.882L234.762 353.125V350.542H258.325V353.125L249.024 354.882V415.132H277.03L281.888 396.84H283.955V418.749H234.762ZM290.548 418.749V416.166L296.025 414.926L322.378 350.025H324.548L350.798 414.822L356.999 416.166V418.749H334.986V416.166L343.77 414.822L335.089 392.913H308.943L300.572 414.822L309.77 416.166V418.749H290.548ZM310.39 389.296H333.643L321.861 359.429L310.39 389.296ZM432.129 419.783C428.133 419.783 424.722 419.369 421.898 418.543C419.073 417.716 416.145 416.545 413.113 415.029L412.08 399.114H413.94L419.831 412.239C422.173 413.961 424.447 415.132 426.651 415.752C428.856 416.304 431.13 416.579 433.472 416.579C438.088 416.579 441.568 415.373 443.91 412.962C446.252 410.482 447.424 407.037 447.424 402.628C447.424 399.321 446.631 396.737 445.047 394.877C443.531 393.016 441.326 391.363 438.433 389.916C435.608 388.469 432.266 386.781 428.408 384.852C425.377 383.337 422.828 381.821 420.761 380.305C418.763 378.789 417.247 377.032 416.214 375.034C415.18 372.968 414.663 370.418 414.663 367.387C414.663 364.424 415.559 361.6 417.35 358.913C419.211 356.157 421.587 353.918 424.481 352.195C427.375 350.404 430.475 349.508 433.782 349.508C436.814 349.508 439.57 349.887 442.05 350.645C444.599 351.403 447.217 352.471 449.904 353.849L450.937 369.35H449.077L444.53 357.052C442.808 355.468 441.12 354.331 439.466 353.642C437.813 352.953 435.884 352.609 433.679 352.609C429.476 352.609 426.238 353.814 423.964 356.226C421.691 358.637 420.554 361.565 420.554 365.01C420.554 367.628 421.071 369.833 422.104 371.624C423.207 373.415 424.86 375.034 427.065 376.481C429.269 377.928 432.06 379.478 435.436 381.132C439.57 383.13 442.98 385.059 445.667 386.919C448.354 388.71 450.317 390.777 451.558 393.12C452.867 395.462 453.521 398.425 453.521 402.008C453.521 405.452 452.453 408.518 450.317 411.205C448.251 413.823 445.598 415.925 442.36 417.509C439.122 419.025 435.711 419.783 432.129 419.783ZM497.69 419.783C491.489 419.783 485.943 418.267 481.051 415.236C476.228 412.204 472.405 408.036 469.58 402.731C466.755 397.426 465.343 391.397 465.343 384.646C465.343 377.894 466.755 371.865 469.58 366.56C472.405 361.255 476.228 357.087 481.051 354.055C485.943 351.024 491.489 349.508 497.69 349.508C503.959 349.508 509.506 351.024 514.328 354.055C519.22 357.087 523.078 361.255 525.903 366.56C528.728 371.865 530.14 377.894 530.14 384.646C530.14 391.397 528.728 397.426 525.903 402.731C523.078 408.036 519.22 412.204 514.328 415.236C509.506 418.267 503.959 419.783 497.69 419.783ZM499.86 416.682C504.545 416.682 508.679 415.511 512.261 413.169C515.913 410.757 518.738 407.416 520.736 403.144C522.734 398.804 523.733 393.705 523.733 387.849C523.733 380.753 522.493 374.552 520.012 369.247C517.532 363.942 514.191 359.843 509.988 356.949C505.785 353.987 501.1 352.505 495.933 352.505C491.248 352.505 487.08 353.676 483.428 356.019C479.777 358.361 476.917 361.703 474.851 366.043C472.784 370.315 471.75 375.379 471.75 381.235C471.75 388.332 472.99 394.567 475.471 399.941C478.02 405.246 481.396 409.379 485.598 412.342C489.87 415.236 494.624 416.682 499.86 416.682ZM541.984 418.749V416.166L550.045 414.409V354.882L541.984 353.125V350.542H565.546V353.125L556.245 354.882V415.132H584.252L589.109 396.84H591.176V418.749H541.984Z" fill="white"/>
<path d="M193.881 494.228C192.816 494.228 191.931 493.876 191.228 493.173C190.545 492.47 190.203 491.596 190.203 490.551C190.203 489.506 190.545 488.642 191.228 487.958C191.931 487.255 192.816 486.903 193.881 486.903C194.905 486.903 195.769 487.255 196.473 487.958C197.176 488.642 197.528 489.506 197.528 490.551C197.528 491.596 197.176 492.47 196.473 493.173C195.769 493.876 194.905 494.228 193.881 494.228ZM213.533 498.749V498.267L216.065 497.031V480.574L213.533 479.338V478.855H222.214V479.338L219.833 480.574V487.657H228.966V480.574L226.585 479.338V478.855H235.236V479.338L232.764 480.574V497.031L235.236 498.267V498.749H226.585V498.267L228.966 497.031V489.315H219.833V497.031L222.214 498.267V498.749H213.533ZM250.343 499.051C248.876 499.051 247.52 498.8 246.274 498.297C245.028 497.775 243.943 497.061 243.018 496.157C242.094 495.233 241.371 494.148 240.848 492.902C240.346 491.656 240.095 490.289 240.095 488.802C240.095 487.315 240.346 485.949 240.848 484.703C241.371 483.457 242.094 482.382 243.018 481.478C243.943 480.553 245.028 479.84 246.274 479.338C247.52 478.815 248.876 478.554 250.343 478.554C251.83 478.554 253.196 478.815 254.442 479.338C255.688 479.84 256.773 480.553 257.698 481.478C258.622 482.382 259.335 483.457 259.838 484.703C260.36 485.949 260.621 487.315 260.621 488.802C260.621 490.289 260.36 491.656 259.838 492.902C259.335 494.148 258.622 495.233 257.698 496.157C256.773 497.061 255.688 497.775 254.442 498.297C253.196 498.8 251.83 499.051 250.343 499.051ZM250.886 497.514C252.011 497.514 252.995 497.192 253.839 496.549C254.704 495.906 255.377 495.002 255.859 493.836C256.341 492.671 256.582 491.294 256.582 489.707C256.582 487.758 256.281 486.059 255.678 484.613C255.095 483.166 254.292 482.051 253.267 481.267C252.262 480.463 251.137 480.061 249.891 480.061C248.786 480.061 247.791 480.383 246.907 481.026C246.043 481.649 245.359 482.543 244.857 483.708C244.355 484.874 244.104 486.25 244.104 487.838C244.104 489.787 244.405 491.485 245.008 492.932C245.611 494.379 246.424 495.504 247.449 496.308C248.494 497.112 249.64 497.514 250.886 497.514ZM269.209 498.749V498.267L272.344 497.031V480.513H267.792L265.532 485.246H265.049V478.855H283.436V485.246H282.954L280.693 480.513H276.142V497.031L279.246 498.267V498.749H269.209ZM287.729 498.749V498.267L290.261 497.031V480.574L287.729 479.338V478.855H303.494V484.07H303.011L300.932 480.513H294.029V487.657H298.882L300.51 485.095H300.992V491.817H300.51L298.882 489.315H294.029V497.092H301.685L303.855 492.872H304.338V498.749H287.729ZM309.4 498.749V498.267L311.932 497.031V480.574L309.4 479.338V478.855H318.533V479.338L315.7 480.574V497.092H322.632L324.923 491.666H325.405V498.749H309.4ZM353.788 499.051C351.959 499.051 350.482 498.599 349.357 497.694C348.231 496.77 347.669 495.514 347.669 493.927C347.669 492.882 348 491.887 348.663 490.943C349.347 489.978 350.412 489.094 351.858 488.29C351.235 487.627 350.743 487.044 350.381 486.542C350.04 486.039 349.789 485.557 349.628 485.095C349.467 484.613 349.387 484.07 349.387 483.467C349.387 482.603 349.648 481.799 350.17 481.056C350.693 480.292 351.406 479.689 352.311 479.247C353.215 478.785 354.24 478.554 355.385 478.554C357.073 478.554 358.399 478.926 359.364 479.669C360.348 480.413 360.841 481.377 360.841 482.563C360.841 483.447 360.439 484.251 359.635 484.974C358.851 485.698 357.606 486.451 355.897 487.235C356.058 487.416 356.229 487.597 356.41 487.778C356.591 487.938 356.772 488.119 356.952 488.32L361.564 492.932C362.589 491.405 363.523 489.425 364.367 486.994L361.414 485.818V485.336H368.738V485.818L366.146 486.934C365.543 488.26 364.93 489.506 364.307 490.671C363.704 491.817 363.071 492.852 362.408 493.776L365.784 497.182L368.286 498.267V498.749H362.257L360.057 496.549C359.173 497.353 358.218 497.976 357.194 498.418C356.169 498.84 355.033 499.051 353.788 499.051ZM352.853 482.473C352.853 483.156 353.034 483.789 353.396 484.372C353.777 484.954 354.35 485.648 355.114 486.451C355.817 485.869 356.37 485.266 356.772 484.643C357.173 484 357.374 483.276 357.374 482.473C357.374 481.749 357.173 481.146 356.772 480.664C356.37 480.162 355.817 479.91 355.114 479.91C354.41 479.91 353.858 480.152 353.456 480.634C353.054 481.096 352.853 481.709 352.853 482.473ZM351.195 492.902C351.195 494.188 351.567 495.193 352.311 495.916C353.074 496.619 354.059 496.971 355.264 496.971C356.651 496.971 357.937 496.519 359.123 495.615L354.451 490.912C354.129 490.591 353.818 490.279 353.516 489.978C353.215 489.677 352.944 489.405 352.702 489.164C352.079 489.747 351.668 490.33 351.467 490.912C351.286 491.475 351.195 492.138 351.195 492.902ZM396.63 499.051C395.344 499.051 394.218 498.93 393.254 498.689C392.309 498.428 391.365 498.056 390.42 497.574L390.119 492.54H390.661L392.5 496.006C393.746 497.031 395.052 497.544 396.419 497.544C397.544 497.544 398.448 497.272 399.131 496.73C399.815 496.167 400.156 495.373 400.156 494.349C400.156 493.585 399.975 492.972 399.614 492.51C399.272 492.028 398.74 491.596 398.016 491.214C397.293 490.812 396.348 490.35 395.183 489.827C393.776 489.144 392.691 488.411 391.927 487.627C391.164 486.823 390.782 485.748 390.782 484.402C390.782 483.638 390.973 482.905 391.355 482.201C391.736 481.498 392.239 480.875 392.862 480.332C393.505 479.79 394.218 479.358 395.002 479.036C395.806 478.715 396.63 478.554 397.474 478.554C398.478 478.554 399.413 478.675 400.277 478.916C401.161 479.137 402.005 479.458 402.809 479.88L403.11 484.703H402.598L400.759 481.387C400.176 480.945 399.634 480.614 399.131 480.393C398.629 480.172 398.056 480.061 397.413 480.061C396.569 480.061 395.866 480.343 395.303 480.905C394.761 481.468 394.489 482.181 394.489 483.045C394.489 483.95 394.791 484.683 395.394 485.246C395.997 485.788 397.001 486.391 398.408 487.054C399.634 487.617 400.639 488.169 401.422 488.712C402.206 489.255 402.789 489.867 403.17 490.551C403.552 491.234 403.743 492.078 403.743 493.083C403.743 494.047 403.532 494.901 403.11 495.645C402.708 496.368 402.156 496.991 401.452 497.514C400.769 498.016 400.006 498.398 399.162 498.659C398.318 498.92 397.474 499.051 396.63 499.051ZM408.346 498.749V498.267L410.877 497.031V480.574L408.346 479.338V478.855H417.72C420.091 478.855 421.99 479.288 423.417 480.152C424.863 480.996 425.587 482.352 425.587 484.221C425.587 485.346 425.205 486.341 424.442 487.205C423.698 488.049 422.673 488.712 421.367 489.194C420.081 489.677 418.624 489.918 416.996 489.918H414.645V497.031L417.599 498.267V498.749H408.346ZM414.645 480.513V488.38H416.574C418.162 488.38 419.408 488.019 420.312 487.295C421.216 486.552 421.668 485.617 421.668 484.492C421.668 483.085 421.206 482.071 420.282 481.448C419.378 480.825 418.071 480.513 416.363 480.513H414.645ZM426.789 498.749V498.267L428.657 497.242L436.464 478.705H438.574L446.291 497.182L448.34 498.267V498.749H439.659V498.267L442.282 497.212L440.142 491.967H432.907L430.798 497.212L433.299 498.267V498.749H426.789ZM433.601 490.31H439.448L436.525 483.106L433.601 490.31ZM467.139 494.228C466.074 494.228 465.19 493.876 464.487 493.173C463.803 492.47 463.462 491.596 463.462 490.551C463.462 489.506 463.803 488.642 464.487 487.958C465.19 487.255 466.074 486.903 467.139 486.903C468.164 486.903 469.028 487.255 469.731 487.958C470.435 488.642 470.786 489.506 470.786 490.551C470.786 491.596 470.435 492.47 469.731 493.173C469.028 493.876 468.164 494.228 467.139 494.228Z" fill="white"/>
</svg>
